<?xml version="1.0" encoding="UTF-8" standalone="no"?>
<!DOCTYPE svg PUBLIC "-//W3C//DTD SVG 1.0//EN" "http://www.w3.org/TR/2001/REC-SVG-20010904/DTD/svg10.dtd">
<!-- Created with Inkscape (http://www.inkscape.org/) -->

<svg
   xmlns:svg="http://www.w3.org/2000/svg"
   xmlns="http://www.w3.org/2000/svg"
   version="1.1"
   width="500"
   height="500"
   id="svg2">
  <defs
     id="defs4" />
  <g
     transform="translate(0,-552.36218)"
     id="layer1">
    <path
       d="m 251.72903,576.6943 c 56.49722,57.60024 58.29419,57.11716 137.2515,44.77967 7.64051,84.60376 12.74732,84.52179 84.0984,112.49526 -36.27392,68.57383 -36.29141,77.29374 -0.36406,139.79994 -52.60962,18.8321 -76.80166,26.81913 -84.46246,115.40775 -60.2328,-17.85159 -88.40175,-16.31538 -135.79524,42.95938 -45.03318,-61.39133 -72.5017,-58.45512 -138.34369,-43.6875 -6.19919,-64.41617 -21.714129,-91.15844 -85.9187,-114.31558 44.444097,-57.96067 36.554383,-93.42135 1.092178,-139.43587 71.697462,-27.23029 75.601162,-38.20689 85.554652,-113.58744 88.44631,20.54898 89.57219,19.35236 136.88742,-44.41561 z"
       id="path2848"
       style="fill:#ffff00;fill-opacity:1;stroke:#ff0000;stroke-width:20.38749123;stroke-linecap:butt;stroke-linejoin:miter;stroke-miterlimit:4;stroke-opacity:1;stroke-dasharray:none" />
    <path
       d="m 231.05939,667.18992 -61.79957,51.66955 c 0,0 18.84983,20.61976 27.33198,30.00783 -11.774,18.76765 -18.60358,40.94047 -18.60358,64.73029 0,67.39103 54.61534,122.00639 122.00638,122.00639 67.39103,0 122.00638,-54.61536 122.00638,-122.00639 0,-67.39104 -54.61535,-122.00639 -122.00638,-122.00639 -15.17723,0 -29.66401,2.77292 -43.06858,7.83644 l -25.86663,-32.23772 z m -2.03875,10.44859 19.55925,23.70046 -6.30738,5.16058 -19.55925,-23.63675 6.30738,-5.22429 z m 17.39308,67.46985 a 5.0973823,5.0973823 0 0 1 0.0636,0 5.0973823,5.0973823 0 0 1 0.38227,0 5.0973823,5.0973823 0 0 1 2.86699,0.89195 l 34.4677,22.10769 a 5.0989627,5.0989627 0 1 1 -5.47914,8.60097 l -34.4676,-22.17139 a 5.0973823,5.0973823 0 0 1 2.16617,-9.42922 z m 100.79066,0.25484 a 5.0973823,5.0973823 0 0 1 0.38226,0 5.0973823,5.0973823 0 0 1 2.80328,9.42922 l -34.53131,22.17139 a 5.0989627,5.0989627 0 1 1 -5.47914,-8.60097 l 34.4676,-22.10768 a 5.0973823,5.0973823 0 0 1 2.35731,-0.89196 z m -87.34766,33.70307 c 11.94271,0 21.598,9.71901 21.598,21.66171 0,11.94271 -9.65529,21.598 -21.598,21.598 -11.9427,0 -21.66171,-9.65529 -21.66171,-21.598 0,-11.9427 9.71901,-21.66171 21.66171,-21.66171 z m 75.17887,0 c 11.94271,0 21.598,9.71901 21.598,21.66171 0,11.94271 -9.65529,21.598 -21.598,21.598 -11.9427,0 -21.6617,-9.65529 -21.6617,-21.598 0,-11.9427 9.719,-21.66171 21.6617,-21.66171 z m 22.10769,58.74146 0,41.66694 c -36.93461,-12.35809 -96.83585,-16.47039 -137.74298,-19.55925 43.53092,-2.61694 105.60379,-6.75884 137.74298,-22.10769 z"
       id="path3622"
       style="fill:#000000;fill-opacity:1;stroke:none" />
    <path
       d="m 77.838054,803.55012 9.524934,22.13906"
       id="path3648"
       style="fill:#000000;stroke:#000000;stroke-width:3.05812359;stroke-linecap:round;stroke-linejoin:miter;stroke-miterlimit:4;stroke-opacity:1;stroke-dasharray:none" />
    <path
       d="M 108.72975,799.94608 96.630509,826.97633"
       id="path3650"
       style="fill:none;stroke:#000000;stroke-width:3.05812359;stroke-linecap:round;stroke-linejoin:miter;stroke-miterlimit:4;stroke-opacity:1;stroke-dasharray:none" />
    <path
       d="m 127.00736,827.49119 -23.42622,6.17835"
       id="path3652"
       style="fill:none;stroke:#000000;stroke-width:3.05812359;stroke-linecap:round;stroke-linejoin:miter;stroke-miterlimit:4;stroke-opacity:1;stroke-dasharray:none" />
    <path
       d="m 104.096,840.8776 21.6242,13.3864"
       id="path3654"
       style="fill:none;stroke:#000000;stroke-width:3.05812359;stroke-linecap:round;stroke-linejoin:miter;stroke-miterlimit:4;stroke-opacity:1;stroke-dasharray:none" />
    <path
       d="m 88.135287,848.34309 -5.148616,24.71337"
       id="path3656"
       style="fill:none;stroke:#000000;stroke-width:3.05812359;stroke-linecap:round;stroke-linejoin:miter;stroke-miterlimit:4;stroke-opacity:1;stroke-dasharray:none" />
    <path
       d="m 81.442073,841.39246 -19.30732,6.95063"
       id="path3658"
       style="fill:none;stroke:#000000;stroke-width:3.05812359;stroke-linecap:round;stroke-linejoin:miter;stroke-miterlimit:4;stroke-opacity:1;stroke-dasharray:none" />
    <path
       d="M 79.897497,832.63981 63.473824,825.2376"
       id="path3660"
       style="fill:none;stroke:#000000;stroke-width:3.05812359;stroke-linecap:round;stroke-linejoin:miter;stroke-miterlimit:4;stroke-opacity:1;stroke-dasharray:none" />
    <path
       d="m 92.254171,837.53099 15.960739,32.69373 c 3.54175,7.25487 8.9057,10.94981 13.90127,10.81212 24.51522,-0.67575 39.58123,-47.12208 37.58491,-66.41719 -4.72876,-45.70514 -13.77332,-63.52817 -14.41614,-95.24946 -0.58007,-28.62458 8.45227,-47.84108 29.86198,-51.74361 14.24334,-2.59624 19.04408,17.62225 27.03026,30.11942"
       id="path3662"
       style="fill:none;stroke:#000000;stroke-width:10.19374561;stroke-linecap:round;stroke-linejoin:miter;stroke-miterlimit:4;stroke-opacity:1;stroke-dasharray:none" />
  </g>
</svg>
